<svg height="200px" width="200px" version="1.1" id="Layer_1" xmlns="http://www.w3.org/2000/svg" xmlns:xlink="http://www.w3.org/1999/xlink" viewBox="0 0 276.318 276.318" xml:space="preserve" fill="#000000" stroke="#000000" stroke-width="4.421087999999999"><g id="SVGRepo_bgCarrier" stroke-width="0"></g><g id="SVGRepo_tracerCarrier" stroke-linecap="round" stroke-linejoin="round"></g><g id="SVGRepo_iconCarrier"> <g> <g> <path style="fill:#000000;" d="M239.847,193.166c-2.355-2.465-2.931-6.08-1.424-9.175c5.396-11.257,8.135-23.198,8.135-35.523 c0-38.81-27.581-71.978-66.172-84.796l-1.753-42.425c-0.164-3.752-3.314-6.738-7.176-6.738h-53.819 c-3.834,0-7.012,2.985-7.176,6.738l-1.726,42.699C88.441,70.875,71.241,83.42,59.6,99.442 c-10.298,14.133-16.269,30.949-16.269,49.026c0,12.325,2.739,24.267,8.134,35.523c1.506,3.095,0.931,6.71-1.397,9.175 c-18.679,19.638-28.95,44.617-28.95,70.28c0,0.685,0,1.369,0.027,2.054c0.082,3.834,3.287,6.847,7.176,6.847h64.912 c1.15,2.355,3.615,3.971,6.464,3.971H188.3c2.848,0,5.313-1.616,6.464-3.971h66.802c3.889,0,7.094-3.013,7.203-6.847 c0-0.685,0.027-1.369,0.027-2.054C268.797,237.782,258.499,212.803,239.847,193.166z"></path> <g> <g id="XMLID_15_"> <g> <path style="fill:#ffffff;" d="M130.963,219.741c25.636,0,46.479-20.487,46.479-45.63s-20.843-45.602-46.479-45.602 s-46.506,20.46-46.506,45.602S105.327,219.741,130.963,219.741z M247.968,257.839h-66.801c0.466-0.904,0.712-1.945,0.712-3.04 v-21.747c0-3.889-3.204-7.039-7.176-7.039H86.1c-3.971,0-7.176,3.15-7.176,7.039v21.747c0,1.096,0.246,2.136,0.712,3.04H14.724 c4.054,0,7.231-3.259,7.148-7.231c-0.027-0.548-0.027-1.096-0.027-1.671c0-22.103,8.929-43.658,25.116-60.694 c6.354-6.71,7.888-16.406,3.889-24.76c-2.547-5.341-4.41-10.873-5.505-16.515c-0.849-4.273-1.287-8.628-1.287-13.01 c0-29.635,19.391-55.271,47.575-67.979c0.959-0.411,1.917-0.822,2.876-1.233l-1.726,41.96c-0.082,1.917,0.63,3.78,1.999,5.176 c1.342,1.369,3.204,2.164,5.149,2.164h62.036c1.945,0,3.807-0.794,5.176-2.164c1.342-1.397,2.054-3.259,1.999-5.176 l-1.753-42.288c30.183,12.051,51.245,38.646,51.245,69.54c0,10.216-2.301,20.158-6.792,29.525 c-3.999,8.354-2.465,18.049,3.889,24.76c16.187,17.036,25.116,38.591,25.116,60.694c0,0.575,0,1.123-0.027,1.671 C240.737,254.58,243.914,257.839,247.968,257.839z"></path> <path style="fill:#ffffff;" d="M130.963,205.663c17.721,0,32.127-14.16,32.127-31.552s-14.407-31.525-32.127-31.525 s-32.155,14.133-32.155,31.525S113.242,205.663,130.963,205.663z M130.963,128.509c25.636,0,46.479,20.46,46.479,45.603 s-20.843,45.63-46.479,45.63s-46.506-20.487-46.506-45.63S105.327,128.509,130.963,128.509z"></path> <g> <path style="fill:#ffffff;" d="M174.703,226.013H86.1c-3.971,0-7.176,3.15-7.176,7.039v21.747c0,1.096,0.247,2.136,0.712,3.04 c1.15,2.355,3.615,3.971,6.464,3.971h88.603c2.848,0,5.313-1.616,6.464-3.971c0.466-0.904,0.712-1.945,0.712-3.04v-21.747 C181.879,229.163,178.674,226.013,174.703,226.013z M93.276,240.091h74.251v7.669H93.276V240.091z"></path> <path style="fill:#ffffff;" d="M226.249,178.658c-2.355-2.465-2.931-6.08-1.424-9.175c5.396-11.257,8.135-23.198,8.135-35.523 c0-38.81-27.581-71.978-66.172-84.796l-1.753-42.425C164.87,2.985,161.72,0,157.859,0H104.04 c-3.834,0-7.012,2.985-7.176,6.738l-0.282,6.946c-0.11,2.733,2.076,5.009,4.812,5.009h4.736c2.583,0,4.705-2.038,4.812-4.618 h40.043l1.698,41.768l1.808,44.124h-47.082l1.78-43.494l0.309-7.461c0.167-4.07-3.087-7.461-7.159-7.461 c-3.845,0-7.003,3.035-7.159,6.875l-0.041,1.005C74.844,56.36,57.644,68.905,46.003,84.927 c-10.298,14.133-16.269,30.949-16.269,49.026c0,12.325,2.739,24.267,8.135,35.523c1.506,3.095,0.931,6.71-1.397,9.175 c-18.679,19.638-28.95,44.617-28.95,70.28c0,0.685,0,1.369,0.027,2.054c0.082,3.834,3.287,6.847,7.176,6.847 c4.054,0,7.231-3.259,7.149-7.231c-0.027-0.548-0.027-1.096-0.027-1.671c0-22.103,8.929-43.658,25.116-60.694 c6.354-6.71,7.888-16.406,3.889-24.76c-2.547-5.341-4.41-10.873-5.505-16.516c-0.849-4.273-1.287-8.628-1.287-13.01 c0-29.635,19.391-55.271,47.575-67.979c0.959-0.411,1.917-0.822,2.876-1.232l-1.726,41.96c-0.082,1.917,0.63,3.78,1.999,5.176 c1.342,1.369,3.204,2.164,5.149,2.164h62.036c1.945,0,3.807-0.794,5.176-2.164c1.342-1.397,2.054-3.259,1.999-5.176 l-1.753-42.288c30.183,12.051,51.245,38.646,51.245,69.54c0,10.216-2.301,20.158-6.792,29.525 c-3.999,8.354-2.465,18.049,3.889,24.76c16.187,17.036,25.116,38.591,25.116,60.694c0,0.575,0,1.123-0.027,1.671 c-0.082,3.971,3.095,7.231,7.148,7.231c3.889,0,7.094-3.013,7.203-6.847c0-0.685,0.027-1.369,0.027-2.054 C255.199,223.274,244.9,198.296,226.249,178.658z"></path> <path style="fill:#ffffff;" d="M103.042,39.777c3.87,0,7.042-3.068,7.17-6.932l0.11-3.259c0.137-4.056-3.114-7.417-7.17-7.417 h-0.003c-3.87,0-7.044,3.07-7.17,6.938l-0.107,3.262C95.738,36.419,98.986,39.777,103.042,39.777z"></path> </g> </g> </g> </g> </g> </g> </g></svg>